<svg width="36" height="36" viewBox="0 0 36 36" fill="none" xmlns="http://www.w3.org/2000/svg">
<path d="M35.6175 18.405C35.6175 17.22 35.5125 16.095 35.3325 15H18.3825V21.765H28.0875C27.6525 23.985 26.3775 25.86 24.4875 27.135V31.635H30.2775C33.6675 28.5 35.6175 23.88 35.6175 18.405Z" fill="#4285F4"/>
<path d="M18.3825 36.0001C23.2425 36.0001 27.3075 34.3801 30.2775 31.6351L24.4875 27.1351C22.8675 28.2151 20.8125 28.8751 18.3825 28.8751C13.6875 28.8751 9.71251 25.7101 8.28751 21.4351H2.3175V26.0701C5.2725 31.9501 11.3475 36.0001 18.3825 36.0001Z" fill="#34A853"/>
<path d="M8.28751 21.4349C7.91251 20.3549 7.71751 19.1999 7.71751 17.9999C7.71751 16.7999 7.92751 15.6449 8.28751 14.5649V9.92993H2.31751C1.08751 12.3599 0.382507 15.0899 0.382507 17.9999C0.382507 20.9099 1.08751 23.6399 2.31751 26.0699L8.28751 21.4349Z" fill="#FBBC05"/>
<path d="M18.3825 7.125C21.0375 7.125 23.4075 8.04 25.2825 9.825L30.4125 4.695C27.3075 1.785 23.2425 0 18.3825 0C11.3475 0 5.2725 4.05 2.3175 9.93L8.28751 14.565C9.71251 10.29 13.6875 7.125 18.3825 7.125Z" fill="#EA4335"/>
</svg>
