<svg width="176" height="89" viewBox="0 0 176 89" fill="none" xmlns="http://www.w3.org/2000/svg">
<path d="M172.447 1.8984C172.199 48.5658 134.166 86.1961 87.4988 85.9481C40.8314 85.7001 3.20106 47.6676 3.44909 1.00022" stroke="white" stroke-opacity="0.04" stroke-width="6"/>
<path d="M150.466 3.28144C150.281 38.0749 122.149 66.1318 87.6319 65.9484C53.1146 65.7649 25.2827 37.4105 25.4676 2.6171" stroke="white" stroke-opacity="0.04" stroke-width="6"/>
<path d="M130.467 3.17501C130.34 26.9229 111.21 46.0733 87.7387 45.9485C64.2669 45.8238 45.3416 26.4712 45.4678 2.72326" stroke="white" stroke-opacity="0.04" stroke-width="6"/>
<path d="M110.991 2.25171C110.923 15.2015 100.491 25.6443 87.6917 25.5763C74.8925 25.5083 64.5724 14.9552 64.6412 2.00537" stroke="white" stroke-opacity="0.04" stroke-width="6"/>
<path d="M94.9304 1.96821C94.9074 6.29852 91.4192 9.7905 87.1392 9.76775C82.8592 9.745 79.4083 6.21615 79.4313 1.88583" stroke="white" stroke-opacity="0.04" stroke-width="6"/>
</svg>
