<svg width="31" height="31" viewBox="0 0 31 31" fill="none" xmlns="http://www.w3.org/2000/svg">
<path d="M6.45825 9.04175H24.2703C24.6313 9.04176 24.9882 9.1174 25.3181 9.26379C25.648 9.41018 25.9435 9.62408 26.1857 9.89168C26.4279 10.1593 26.6113 10.4747 26.7241 10.8175C26.8369 11.1603 26.8767 11.523 26.8408 11.8821L26.0658 19.6321C26.002 20.2696 25.7037 20.8606 25.2287 21.2905C24.7537 21.7203 24.136 21.9584 23.4953 21.9584H11.1599C10.5625 21.9587 9.98344 21.7518 9.52137 21.3731C9.0593 20.9944 8.74277 20.4673 8.62567 19.8814L6.45825 9.04175Z" stroke="white" stroke-width="2" stroke-linejoin="round"/>
<path d="M6.45825 9.04167L5.412 4.85279C5.34203 4.57347 5.18073 4.32554 4.95373 4.14839C4.72673 3.97123 4.44703 3.87501 4.15909 3.875H2.58325M10.3333 27.125H12.9166M20.6666 27.125H23.2499" stroke="white" stroke-width="2" stroke-linecap="round" stroke-linejoin="round"/>
</svg>
